<?xml version="1.0" standalone="no"?><!DOCTYPE svg PUBLIC "-//W3C//DTD SVG 1.1//EN" "http://www.w3.org/Graphics/SVG/1.1/DTD/svg11.dtd"><svg t="1682204742961" class="icon" viewBox="0 0 1024 1024" version="1.1" xmlns="http://www.w3.org/2000/svg" p-id="1769" xmlns:xlink="http://www.w3.org/1999/xlink" width="200" height="200"><path d="M661.944889 73.144889H146.289778a36.679111 36.679111 0 0 0-36.579556 36.565333v804.579556a36.679111 36.679111 0 0 0 36.579556 36.565333h731.420444a36.679111 36.679111 0 0 0 36.579556-36.565333v-588.8L661.944889 73.144889z" fill="#F2733D" p-id="1770"></path><path d="M661.944889 288.910222a36.679111 36.679111 0 0 0 36.565333 36.579556h215.779556L661.944889 73.144889v215.765333z" fill="#EF8F6F" p-id="1771"></path><path d="M512 420.565333h-140.8v354.744889h91.434667v-124.344889h53.020444c104.234667 0 166.4-43.875556 166.4-118.855111-1.820444-73.144889-58.510222-111.544889-170.055111-111.544889z m-49.365333 62.179556h43.875555c60.344889 0 84.124444 14.620444 84.124445 51.2 0 38.4-27.434667 56.689778-82.289778 56.689778H460.8v-107.889778h1.834667z" fill="#FFFFFF" p-id="1772"></path></svg>